<svg width="23" height="32" xmlns="http://www.w3.org/2000/svg"><g id="App-web-Drupal" stroke="none" stroke-width="1" fill="none" fill-rule="evenodd"><g id="Web5_Escritorio-admin-transformadora-lateral-colapsado" transform="translate(-1286 -217)" fill-rule="nonzero"><g id="Components/icons/pdf_ic" transform="translate(1286 217)"><g id="pdf_ic"><path d="M20.57 32H2.42A2.427 2.427 0 010 29.57V3.213A2.424 2.424 0 012.42.788h10.46c1.177 0 2.75.651 3.582 1.483l5.052 5.052c.831.832 1.486 2.405 1.486 3.58V29.57A2.435 2.435 0 0120.57 32zM3.31 3C2.59 3 2 3.583 2 4.303V28.69c0 .72.59 1.31 1.31 1.31h16.38c.721 0 1.31-.59 1.31-1.31V11.994c0-.87-.543-2.174-1.158-2.79L14.79 4.153C14.175 3.537 12.87 3 12 3H3.31z" id="Shape" fill="#443635"/><g id="Group" transform="translate(5.224 22.67)" fill="#443635"><path d="M2.17 3.371h-.96v1.467c0 .21-.05.368-.15.476a.486.486 0 01-.373.163.488.488 0 01-.382-.16C.21 5.208.16 5.051.16 4.844V.852c0-.23.053-.396.16-.494.105-.1.273-.149.504-.149H2.17c.398 0 .705.031.919.092a1.317 1.317 0 01.9.795c.08.198.12.42.12.668 0 .528-.162.927-.487 1.2-.325.271-.809.407-1.452.407zM1.916.997h-.707V2.58h.707c.247 0 .454-.026.62-.078a.725.725 0 00.38-.254.76.76 0 00.13-.463.786.786 0 00-.2-.558c-.152-.153-.461-.23-.93-.23zM5.636.21h1.368c.355 0 .66.032.915.098.254.066.485.19.692.371.54.462.81 1.164.81 2.106 0 .31-.028.594-.082.851a2.51 2.51 0 01-.251.694 2.15 2.15 0 01-.435.553c-.139.125-.29.225-.456.3a2.056 2.056 0 01-.532.16c-.19.03-.403.045-.64.045H5.656c-.19 0-.334-.028-.43-.086a.402.402 0 01-.19-.244 1.547 1.547 0 01-.044-.408V.852c0-.226.05-.39.152-.49.102-.102.265-.153.491-.153zm.406.83v3.515h.795c.175 0 .311-.005.41-.015.1-.009.202-.032.308-.07a.836.836 0 00.275-.159c.35-.297.527-.808.527-1.533 0-.511-.078-.894-.232-1.148-.154-.255-.345-.416-.57-.486-.226-.07-.5-.104-.82-.104h-.693z" id="Shape"/><path d="M13.437 1.018H11.37v1.325h1.728c.16 0 .28.036.359.108a.371.371 0 01.118.288c0 .12-.04.215-.12.286-.08.07-.199.106-.357.106H11.37v1.707c0 .216-.049.377-.146.482a.493.493 0 01-.377.157.494.494 0 01-.38-.16c-.098-.105-.146-.265-.146-.48V.852c0-.15.022-.274.067-.37a.418.418 0 01.21-.207.882.882 0 01.365-.066h2.473c.167 0 .292.037.373.112a.376.376 0 01.122.291.38.38 0 01-.122.295c-.081.074-.205.111-.372.111z" id="Path"/></g><path d="M4.136 21c-.488 0-.88-.248-1.049-.664-.281-.692.125-1.643 1.114-2.61.775-.757 1.857-1.38 3.218-1.854a35.199 35.199 0 001.857-4.014c-1.034-1.61-1.225-3.598-.863-4.708.234-.719.64-.989.938-1.09.416-.14.84-.034 1.137.284.447.48.61 1.448.5 2.958-.043.602-.243 1.41-.594 2.406l.046.058c.235.287.485.603.748.934.56.706 1.189 1.5 1.829 2.21.189-.005.371-.008.547-.008 2.26 0 3.778.473 4.274 1.333.212.366.216.778.012 1.13-.274.477-.868.761-1.59.761-.174 0-.355-.017-.536-.05-.908-.168-1.906-.852-3.127-2.148-.312.017-.64.041-.974.074-.72.07-2.11.25-3.516.694-.605 1.094-1.908 3.303-2.88 3.938-.367.24-.744.366-1.091.366zM7 17c-.798.371-1.457.8-1.97 1.28-1.006.947-1.072 1.54-1.016 1.673.017.039.087.047.143.047.17 0 .399-.082.626-.224C5.28 19.463 6.102 18.426 7 17zm7-1c.75.572 1.378.892 1.908.972.121.018.24.028.353.028.394 0 .651-.11.724-.214.013-.02.032-.045-.013-.109-.167-.237-.98-.628-2.972-.677zm-3.77-3A43.53 43.53 0 019 16a17.772 17.772 0 012.769-.526l.231-.023a71.087 71.087 0 01-1.349-1.858L10.23 13zm-.62-6c-.01 0-.03.001-.062.01-.142.043-.288.232-.389.507-.303.823-.183 2.207.45 3.483.2-.604.32-1.112.352-1.5.154-1.88-.19-2.366-.3-2.47C9.631 7 9.62 7 9.61 7z" id="Shape" fill="#DF4D4D"/><path d="M15.414 2.414l6.172 6.172A2 2 0 0120.172 12H14a2 2 0 01-2-2V3.828a2 2 0 013.414-1.414zM14 3.828V10h6.172L14 3.828z" id="Rectangle" fill="#443635"/></g></g></g></g></svg>