<svg width="24" height="24" xmlns="http://www.w3.org/2000/svg"><g id="Sistema-de-Diseño" stroke="none" stroke-width="1" fill="none" fill-rule="evenodd"><g id="Icons" transform="translate(-713 -320)"><g id="Components/Icons/icon" transform="translate(713 320)"><g id="Material-icons-06-36"><path id="Rectangle" d="M0 0h24v24H0z"/><path d="M17 9c0-4.411-3.589-8-8-8S1 4.59 1 9c0 4.411 3.589 8 8 8a7.946 7.946 0 004.897-1.688l.689.688-1 1L20 23.415 23.414 20 17 13.586l-1 1-.688-.688A7.955 7.955 0 0017 9zm3.586 11l-.586.586L16.414 17l.586-.585L20.586 20zM9 15c-3.309 0-6-2.691-6-6s2.691-6 6-6 6 2.691 6 6-2.691 6-6 6z" id="🌈-Icon" fill="#443635"/></g></g></g></g></svg>