<svg width="24" height="24" xmlns="http://www.w3.org/2000/svg"><g id="Sistema-de-Diseño" stroke="none" stroke-width="1" fill="none" fill-rule="evenodd"><g id="Icons" transform="translate(-713 -544)" fill="#443635"><g id="Components/Icons/icon" transform="translate(713 544)"><g id="Material-icons-04-05"><path d="M14.958 1c1.053 0 1.918.817 1.995 1.85l.005.15v1h5v2h-2v15a3.004 3.004 0 01-2.824 2.995l-.176.005h-10a3.004 3.004 0 01-2.995-2.824L3.958 21V6h-2V4h5V3c0-1.053.817-1.918 1.85-1.995L8.959 1h6zm3 5h-12v15a1 1 0 00.883.993l.117.007h10a1 1 0 00.993-.884l.007-.116V6zm-5 2v12h-2V8h2zm-3 0v12h-2V8h2zm6 0v12h-2V8h2zm-1-5h-6v1h6V3z" id="🌈-Icon"/></g></g></g></g></svg>