<?xml version="1.0" encoding="UTF-8"?>
<svg width="23px" height="32px" viewBox="0 0 23 32" version="1.1" xmlns="http://www.w3.org/2000/svg" xmlns:xlink="http://www.w3.org/1999/xlink">
    <!-- Generator: sketchtool 55.2 (78181) - https://sketchapp.com -->
    <title>A35D2A2F-3CBB-400D-B142-0C66E2CD98E6@2x</title>
    <desc>Created with sketchtool.</desc>
    <g id="App-web-Drupal" stroke="none" stroke-width="1" fill="none" fill-rule="evenodd">
        <g id="Web5_Escritorio-admin-transformadora-lateral-colapsado" transform="translate(-1286.000000, -217.000000)" fill-rule="nonzero">
            <g id="Components/icons/pdf_ic" transform="translate(1286.000000, 217.000000)">
                <g id="pdf_ic">
                    <path d="M20.57088,32 L2.42,32 C1.08253061,32 0,30.9074694 0,29.57 L0,3.2134344 C0,1.87596501 1.08253061,0.787778426 2.42,0.787778426 L12.880805,0.787778426 C14.0570616,0.787778426 15.6300056,1.43934694 16.461819,2.27116035 L21.513528,7.3228688 C22.3453414,8.15468222 23,9.72762682 23,10.9038834 L23,29.57 C22.9996268,30.9074694 21.9083494,32 20.57088,32 Z M3.31,3 C2.58976676,3 2,3.58320076 2,4.303434 L2,28.69 C2,29.4102332 2.58976676,30 3.31,30 L19.69088,30 C20.4111132,30 21,29.4102332 21,28.69 L21,11.993883 C21,11.1232591 20.4573874,9.81974926 19.841644,9.204379 L14.789936,4.152671 C14.1745657,3.53730074 12.8710549,3 12.000431,3 L3.31,3 Z" id="Shape" fill="#443635"></path>
                    <g id="Group" transform="translate(5.224490, 22.670554)" fill="#443635">
                        <path d="M2.17002915,3.37128863 L1.20909621,3.37128863 L1.20909621,4.83750437 C1.20909621,5.04723032 1.15983673,5.20620408 1.06094461,5.31442566 C0.962052478,5.42264723 0.837037901,5.4771312 0.68664723,5.4771312 C0.528793003,5.4771312 0.401539359,5.42339359 0.305259475,5.31629155 C0.208606414,5.20881633 0.160093294,5.05208163 0.160093294,4.84459475 L0.160093294,0.852338192 C0.160093294,0.621341108 0.213457726,0.456396501 0.319067055,0.357504373 C0.425049563,0.258612245 0.59335277,0.20935277 0.824349854,0.20935277 L2.17002915,0.20935277 C2.56783673,0.20935277 2.87458892,0.239953353 3.088793,0.301154519 C3.30038484,0.360116618 3.48398834,0.457889213 3.63811079,0.594472303 C3.79260641,0.731055394 3.90978426,0.898239067 3.98964431,1.09602332 C4.06987755,1.29380758 4.10980758,1.51659475 4.10980758,1.76401166 C4.10980758,2.29168513 3.94710204,2.6913586 3.62206414,2.96340525 C3.29739942,3.23507872 2.81338776,3.37128863 2.17002915,3.37128863 Z M1.91589504,0.997131195 L1.20909621,0.997131195 L1.20909621,2.57977843 L1.91589504,2.57977843 C2.16331195,2.57977843 2.37005248,2.55402915 2.53611662,2.50215743 C2.70180758,2.45028571 2.82868805,2.36557434 2.91601166,2.24765015 C3.0029621,2.13009913 3.04662391,1.9756035 3.04662391,1.78490962 C3.04662391,1.55652478 2.9794519,1.37030904 2.84548105,1.22663557 C2.69434402,1.07363265 2.38460641,0.997131195 1.91589504,0.997131195 Z" id="Shape"></path>
                        <path d="M5.63647813,0.20935277 L7.00380175,0.20935277 C7.35906706,0.20935277 7.66469971,0.24219242 7.91883382,0.308244898 C8.17296793,0.374297376 8.40396501,0.497819242 8.61107872,0.679183673 C9.1503207,1.14080466 9.42012828,1.84275219 9.42012828,2.78465306 C9.42012828,3.0955102 9.3928863,3.37949854 9.33877551,3.6362449 C9.28429155,3.89299125 9.20107289,4.12436152 9.08762682,4.33035569 C8.97455394,4.53634985 8.83013411,4.72069971 8.65324781,4.88303207 C8.51442566,5.00804665 8.36254227,5.10805831 8.19722449,5.18344023 C8.03265306,5.25882216 7.85539359,5.31181341 7.66544606,5.34241399 C7.47587172,5.37301458 7.26241399,5.38831487 7.02432653,5.38831487 L5.65737609,5.38831487 C5.46668222,5.38831487 5.32300875,5.35958017 5.22635569,5.30173761 C5.12970262,5.24389504 5.06663557,5.16254227 5.0375277,5.05805248 C5.00804665,4.9531895 4.99349271,4.81735277 4.99349271,4.6501691 L4.99349271,0.852338192 C4.99349271,0.62619242 5.04387172,0.462367347 5.14500292,0.361236152 C5.24650729,0.259731778 5.40995918,0.20935277 5.63647813,0.20935277 Z M6.04249563,1.03930029 L6.04249563,4.55463557 L6.83736443,4.55463557 C7.01163848,4.55463557 7.14822157,4.54978426 7.24748688,4.54045481 C7.34637901,4.53112536 7.44862974,4.50761516 7.55461224,4.4699242 C7.66059475,4.43223324 7.7523965,4.37924198 7.83001749,4.31095044 C8.18080466,4.01427405 8.35657143,3.50302041 8.35657143,2.77793586 C8.35657143,2.26668222 8.27932362,1.88380175 8.12520117,1.62966764 C7.97070554,1.37516035 7.78038484,1.21357434 7.55461224,1.14379009 C7.32883965,1.07437901 7.05530029,1.03967347 6.7351137,1.03967347 L6.04249563,1.03967347 L6.04249563,1.03930029 Z" id="Shape"></path>
                        <path d="M13.4370146,1.01840233 L11.3703557,1.01840233 L11.3703557,2.34318367 L13.0981691,2.34318367 C13.2582624,2.34318367 13.3776793,2.37900875 13.456793,2.45103207 C13.5355335,2.52305539 13.5750904,2.6189621 13.5750904,2.73875219 C13.5750904,2.85891545 13.5351603,2.95444898 13.4549271,3.02497959 C13.3746939,3.0955102 13.2560233,3.1309621 13.0981691,3.1309621 L11.3703557,3.1309621 L11.3703557,4.83750437 C11.3703557,5.0543207 11.3214694,5.21516035 11.2236968,5.31965015 C11.1259242,5.42413994 11.0001633,5.47675802 10.8471603,5.47675802 C10.6919184,5.47675802 10.5650379,5.42376676 10.4672653,5.31778426 C10.3694927,5.21180175 10.3206064,5.05170845 10.3206064,4.8371312 L10.3206064,0.852338192 C10.3206064,0.701574344 10.3429971,0.578425656 10.3877784,0.482892128 C10.4325598,0.387731778 10.5027172,0.3183207 10.5978776,0.274658892 C10.6934111,0.230997085 10.8150671,0.20935277 10.9632187,0.20935277 L13.4362682,0.20935277 C13.6034519,0.20935277 13.7277201,0.246297376 13.8090729,0.320559767 C13.8904257,0.394822157 13.931102,0.491848397 13.931102,0.612011662 C13.931102,0.734413994 13.8904257,0.832932945 13.8090729,0.907195335 C13.7277201,0.981457726 13.6041983,1.01840233 13.4370146,1.01840233 Z" id="Path"></path>
                    </g>
                    <path d="M4.13554535,21 C3.64839874,21 3.25635378,20.7517793 3.08743195,20.3358599 C2.80578473,19.6444355 3.21179566,18.6934774 4.20138497,17.7265479 C4.97616422,16.9692419 6.058195,16.3460282 7.41921282,15.8722129 C8.14311601,14.5279613 8.80916016,13.0885475 9.27635537,11.8580915 C8.24187543,10.2479843 8.05100706,8.26022229 8.4127924,7.14955111 C8.64688879,6.43117512 9.05223468,6.16099387 9.35050807,6.06084048 C9.76682722,5.92075882 10.191792,6.02557051 10.4880702,6.34433114 C10.934649,6.82480124 11.0982505,7.79239614 10.9888503,9.30234995 C10.9452898,9.90426851 10.7454433,10.7124831 10.3936336,11.7083605 C10.4089297,11.7276592 10.4245583,11.7466251 10.4401869,11.765591 C10.6749483,12.0527418 10.9253384,12.3685078 11.1876992,12.6995796 C11.7476684,13.4059772 12.3768025,14.1995514 13.0165773,14.9109399 C13.2057831,14.9049507 13.3880058,14.9022888 13.5639106,14.9022888 C15.8244039,14.9022888 17.3423728,15.3754387 17.838165,16.2345618 C18.0496498,16.6009036 18.0539726,17.013163 17.8504683,17.3658626 C17.5758041,17.8420071 16.981585,18.1261633 16.2606745,18.1261633 L16.260342,18.1261633 C16.0857672,18.1261633 15.9052071,18.1091938 15.7239819,18.0755875 C14.8155283,17.9078888 13.818291,17.2237845 12.5969329,15.9277797 C12.2846936,15.9447492 11.9578232,15.9693716 11.6226397,16.0019797 C10.9027268,16.0711887 9.51344448,16.2525296 8.10687097,16.696066 C7.50167859,17.7897677 6.19918487,19.9987988 5.22788435,20.6339909 C4.86044612,20.8735605 4.48336471,21 4.13554535,21 Z M7,17 C6.20177861,17.3710131 5.54300784,17.7992179 5.0305459,18.2805817 C4.02352961,19.2271783 3.95799545,19.8203593 4.01438531,19.9534401 C4.03076885,19.9919345 4.10125618,20 4.15688402,20 C4.32757766,20 4.55580421,19.9182451 4.7825067,19.775999 C5.28010915,19.4632775 6.1015723,18.4253941 7,17 Z M14,16 C14.7491881,16.5719346 15.3779236,16.8915531 15.908047,16.9722071 C16.0291613,16.9904632 16.1482902,17 16.2614626,17 C16.2617935,17 16.2617935,17 16.2617935,17 C16.6549187,17 16.9120384,16.8891008 16.9845085,16.7861035 C16.997745,16.7667575 17.0166071,16.7405995 16.9719338,16.6771117 C16.8051534,16.439782 15.9924299,16.0487738 14,16 Z M10.2291713,13 C9.88209945,13.9541579 9.45944751,14.9854195 9,16 C10.139337,15.6845422 11.1722652,15.5384901 11.7686188,15.4743606 C11.8461878,15.4662054 11.9234254,15.4580502 12,15.4506364 C11.5256354,14.8256518 11.0695028,14.1828741 10.6514917,13.5934758 C10.5069613,13.3895959 10.3657459,13.1909057 10.2291713,13 Z M9.60974035,7 C9.60046663,7 9.57981151,7.00149059 9.54819655,7.01080678 C9.40571843,7.05291597 9.26028958,7.24222098 9.15912168,7.51723495 C8.85561799,8.34004099 8.9761764,9.72442705 9.60805422,11 C9.80912541,10.3955655 9.92926229,9.88764673 9.96087726,9.50083846 C10.1151583,7.61934041 9.77076592,7.13378051 9.66116736,7.03018446 C9.63039546,7 9.61901407,7 9.60974035,7 Z" id="Shape" fill="#DF4D4D"></path>
                    <path d="M15.4142136,2.41421356 L21.5857864,8.58578644 C22.366835,9.36683502 22.366835,10.633165 21.5857864,11.4142136 C21.2107137,11.7892863 20.7020059,12 20.1715729,12 L14,12 C12.8954305,12 12,11.1045695 12,10 L12,3.82842712 C12,2.72385763 12.8954305,1.82842712 14,1.82842712 C14.530433,1.82842712 15.0391408,2.03914081 15.4142136,2.41421356 Z M14,3.82842712 L14,10 L20.1715729,10 L14,3.82842712 Z" id="Rectangle" fill="#443635"></path>
                </g>
            </g>
        </g>
    </g>
</svg>