<?xml version="1.0" encoding="UTF-8"?>
<svg width="24px" height="24px" viewBox="0 0 24 24" version="1.1" xmlns="http://www.w3.org/2000/svg" xmlns:xlink="http://www.w3.org/1999/xlink">
    <!-- Generator: sketchtool 57.1 (101010) - https://sketch.com -->
    <title>6A07622B-CB23-4011-BC22-76D62B3066FF</title>
    <desc>Created with sketchtool.</desc>
    <g id="Sistema-de-Diseño" stroke="none" stroke-width="1" fill="none" fill-rule="evenodd">
        <g id="Icons" transform="translate(-713.000000, -320.000000)">
            <g id="Components/Icons/icon" transform="translate(713.000000, 320.000000)">
                <g id="Material-icons-06-36">
                    <rect id="Rectangle" x="0" y="0" width="24" height="24"></rect>
                    <path d="M17,9 C17,4.589 13.411,1 9,1 C4.589,1 1,4.59 1,9 C1,13.411 4.589,17 9,17 C10.846,17 12.543,16.366 13.897,15.312 L14.586,16 L13.586,17 L20,23.415 L23.414,20 L17,13.586 L16,14.586 L15.312,13.898 C16.365,12.543 17,10.847 17,9 Z M20.586,20 L20,20.586 L16.414,17 L17,16.415 L20.586,20 Z M9,15 C5.691,15 3,12.309 3,9 C3,5.691 5.691,3 9,3 C12.309,3 15,5.691 15,9 C15,12.309 12.309,15 9,15 Z" id="🌈-Icon" fill="#443635"></path>
                </g>
            </g>
        </g>
    </g>
</svg>