<?xml version="1.0" encoding="UTF-8"?>
<svg width="24px" height="24px" viewBox="0 0 24 24" version="1.1" xmlns="http://www.w3.org/2000/svg" xmlns:xlink="http://www.w3.org/1999/xlink">
    <!-- Generator: sketchtool 57.1 (101010) - https://sketch.com -->
    <title>779607C3-375B-4A08-99FC-F2857C121A84</title>
    <desc>Created with sketchtool.</desc>
    <g id="Sistema-de-Diseño" stroke="none" stroke-width="1" fill="none" fill-rule="evenodd">
        <g id="Icons" transform="translate(-713.000000, -544.000000)" fill="#443635">
            <g id="Components/Icons/icon" transform="translate(713.000000, 544.000000)">
                <g id="Material-icons-04-05">
                    <path d="M14.958,1 C16.0108636,1 16.8760289,1.81730785 16.952505,2.85093266 L16.958,3 L16.958,4 L21.958,4 L21.958,6 L19.958,6 L19.958,21 C19.958,22.5949286 18.706426,23.9034643 17.1339884,23.9948968 L16.958,24 L6.958,24 C5.36307143,24 4.05453571,22.748426 3.96310323,21.1759884 L3.958,21 L3.958,6 L1.958,6 L1.958,4 L6.958,4 L6.958,3 C6.958,1.94713636 7.77530785,1.08197107 8.80893266,1.00549502 L8.958,1 L14.958,1 Z M17.958,6 L5.958,6 L5.958,21 C5.958,21.5116429 6.34428571,21.9353367 6.84143149,21.993254 L6.958,22 L16.958,22 C17.4705714,22 17.8934694,21.612852 17.9512682,21.1163837 L17.958,21 L17.958,6 Z M12.958,8 L12.958,20 L10.958,20 L10.958,8 L12.958,8 Z M9.958,8 L9.958,20 L7.958,20 L7.958,8 L9.958,8 Z M15.958,8 L15.958,20 L13.958,20 L13.958,8 L15.958,8 Z M14.958,3 L8.958,3 L8.958,4 L14.958,4 L14.958,3 Z" id="🌈-Icon"></path>
                </g>
            </g>
        </g>
    </g>
</svg>